name C:\Users\u0101727\Documents\MyRepositories\upper-imu-dc\Results\main_tracking\Case_46\FLX02_linearAccelerations_bodyFrame.mot
datacolumns 4
datarows 70
range 3.76000000 4.45000000
endheader 
time	radius_imu_x	radius_imu_y	radius_imu_z	
          3.76000000	          0.69691616	         -9.49715352	          2.14706443	
          3.77000000	          0.72353755	         -9.50131476	          2.13618733	
          3.78000000	          0.75193271	         -9.50369783	          2.12908967	
          3.79000000	          0.78207668	         -9.50373062	          2.12592174	
          3.80000000	          0.81346587	         -9.50098242	          2.12660701	
          3.81000000	          0.84512026	         -9.49521167	          2.13083721	
          3.82000000	          0.87567265	         -9.48636061	          2.13809191	
          3.83000000	          0.90353761	         -9.47450035	          2.14769627	
          3.84000000	          0.92713621	         -9.45976463	          2.15893265	
          3.85000000	          0.94513128	         -9.44230823	          2.17120179	
          3.86000000	          0.95661170	         -9.42229517	          2.18419796	
          3.87000000	          0.96117199	         -9.39990525	          2.19804748	
          3.88000000	          0.95887050	         -9.37534988	          2.21336797	
          3.89000000	          0.95009393	         -9.34888927	          2.23123092	
          3.90000000	          0.93537387	         -9.32084184	          2.25303514	
          3.91000000	          0.91519366	         -9.29157921	          2.28031724	
          3.92000000	          0.88981566	         -9.26150516	          2.31453155	
          3.93000000	          0.85916358	         -9.23102433	          2.35682664	
          3.94000000	          0.82279213	         -9.20051279	          2.40784477	
          3.95000000	          0.77995878	         -9.17030385	          2.46757981	
          3.96000000	          0.72978661	         -9.14069271	          2.53532552	
          3.97000000	          0.67148148	         -9.11194856	          2.60972031	
          3.98000000	          0.60454146	         -9.08432128	          2.68886950	
          3.99000000	          0.52889623	         -9.05803284	          2.77051706	
          4.00000000	          0.44494932	         -9.03324628	          2.85224386	
          4.01000000	          0.35353373	         -9.01002019	          2.93168256	
          4.02000000	          0.25580320	         -8.98827315	          3.00674316	
          4.03000000	          0.15308061	         -8.96778584	          3.07582731	
          4.04000000	          0.04669271	         -8.94825328	          3.13798833	
          4.05000000	         -0.06217769	         -8.92936551	          3.19299417	
          4.06000000	         -0.17259706	         -8.91087352	          3.24127210	
          4.07000000	         -0.28391916	         -8.89261089	          3.28374435	
          4.08000000	         -0.39573985	         -8.87447152	          3.32159529	
          4.09000000	         -0.50778357	         -8.85636371	          3.35603229	
          4.10000000	         -0.61976304	         -8.83816506	          3.38810155	
          4.11000000	         -0.73125248	         -8.81969867	          3.41859233	
          4.12000000	         -0.84159803	         -8.80073976	          3.44802568	
          4.13000000	         -0.94988888	         -8.78104798	          3.47669766	
          4.14000000	         -1.05501156	         -8.76041166	          3.50474333	
          4.15000000	         -1.15578834	         -8.73867868	          3.53220426	
          4.16000000	         -1.25116562	         -8.71575254	          3.55910015	
          4.17000000	         -1.34038920	         -8.69156710	          3.58551142	
          4.18000000	         -1.42310374	         -8.66608198	          3.61166108	
          4.19000000	         -1.49934460	         -8.63931676	          3.63796702	
          4.20000000	         -1.56943976	         -8.61139575	          3.66503501	
          4.21000000	         -1.63387777	         -8.58256360	          3.69358302	
          4.22000000	         -1.69320348	         -8.55315611	          3.72431555	
          4.23000000	         -1.74797073	         -8.52353732	          3.75778439	
          4.24000000	         -1.79874009	         -8.49402825	          3.79427307	
          4.25000000	         -1.84609985	         -8.46485650	          3.83373438	
          4.26000000	         -1.89070384	         -8.43614454	          3.87579849	
          4.27000000	         -1.93332799	         -8.40792943	          3.91985059	
          4.28000000	         -1.97493503	         -8.38019171	          3.96514843	
          4.29000000	         -2.01672054	         -8.35287227	          4.01093022	
          4.30000000	         -2.06011252	         -8.32586698	          4.05647654	
          4.31000000	         -2.10671751	         -8.29900737	          4.10113076	
          4.32000000	         -2.15822301	         -8.27205080	          4.14431169	
          4.33000000	         -2.21627253	         -8.24469696	          4.18554594	
          4.34000000	         -2.28231434	         -8.21662832	          4.22452539	
          4.35000000	         -2.35742319	         -8.18756958	          4.26116954	
          4.36000000	         -2.44210436	         -8.15736214	          4.29566431	
          4.37000000	         -2.53611945	         -8.12603083	          4.32845447	
          4.38000000	         -2.63840093	         -8.09380624	          4.36018162	
          4.39000000	         -2.74711104	         -8.06108754	          4.39158306	
          4.40000000	         -2.85984659	         -8.02835949	          4.42338538	
          4.41000000	         -2.97392805	         -7.99609446	          4.45622397	
          4.42000000	         -3.08667698	         -7.96467069	          4.49059929	
          4.43000000	         -3.19560628	         -7.93432006	          4.52686276	
          4.44000000	         -3.29850939	         -7.90510408	          4.56522049	
          4.45000000	         -3.39348764	         -7.87691828	          4.60574688	
